<svg viewBox="0 0 701 127" xmlns="http://www.w3.org/2000/svg"><path d="M47.475 72c0 3.1-.6 5.875-1.8 8.325-1.2 2.45-2.825 4.525-4.875 6.225-2.05 1.7-4.425 3-7.125 3.9-2.7.9-5.6 1.35-8.7 1.35-5.1 0-9.725-.975-13.875-2.925-4.15-1.95-7.575-4.825-10.275-8.625l2.7-1.8c5 7 12.2 10.5 21.6 10.5 2.2 0 4.425-.35 6.675-1.05 2.25-.7 4.3-1.75 6.15-3.15 1.85-1.4 3.35-3.15 4.5-5.25s1.725-4.5 1.725-7.2c0-3.2-.725-5.8-2.175-7.8-1.45-2-3.275-3.6-5.475-4.8-2.2-1.2-4.625-2.175-7.275-2.925-2.65-.75-5.125-1.425-7.425-2.025-2.5-.7-4.85-1.475-7.05-2.325-2.2-.85-4.125-1.95-5.775-3.3-1.65-1.35-2.95-3.025-3.9-5.025-.95-2-1.425-4.5-1.425-7.5s.6-5.6 1.8-7.8c1.2-2.2 2.8-4.025 4.8-5.475 2-1.45 4.275-2.55 6.825-3.3s5.125-1.125 7.725-1.125c9.4 0 16.45 3.35 21.15 10.05l-2.85 1.65c-2.3-3-4.9-5.225-7.8-6.675-2.9-1.45-6.4-2.175-10.5-2.175-1.9 0-3.9.25-6 .75s-4.025 1.325-5.775 2.475c-1.75 1.15-3.2 2.675-4.35 4.575-1.15 1.9-1.725 4.2-1.725 6.9 0 3 .475 5.4 1.425 7.2.95 1.8 2.275 3.25 3.975 4.35 1.7 1.1 3.75 2.025 6.15 2.775 2.4.75 5.05 1.475 7.95 2.175 2.7.7 5.325 1.525 7.875 2.475 2.55.95 4.8 2.125 6.75 3.525 1.95 1.4 3.5 3.15 4.65 5.25 1.15 2.1 1.725 4.7 1.725 7.8zm150.1 18.15c-1.2.5-2.6.9-4.2 1.2-1.6.3-3.15.45-4.65.45-5.4 0-9.275-1.525-11.625-4.575-2.35-3.05-3.525-6.875-3.525-11.475v-51.9h-15v-2.85h14.85v-20.25h3.45v20.25h20.25v2.85h-20.25v51.9c0 4.7 1.15 8.075 3.45 10.125 2.3 2.05 5.35 3.075 9.15 3.075 2.8 0 5.35-.45 7.65-1.35l.45 2.55zm185.05-34.8c0 5.4-.875 10.35-2.625 14.85s-4.225 8.375-7.425 11.625-7.025 5.775-11.475 7.575c-4.45 1.8-9.325 2.7-14.625 2.7-5.3 0-10.15-.9-14.55-2.7-4.4-1.8-8.2-4.325-11.4-7.575-3.2-3.25-5.675-7.125-7.425-11.625s-2.625-9.45-2.625-14.85.875-10.325 2.625-14.775c1.75-4.45 4.225-8.275 7.425-11.475 3.2-3.2 7-5.7 11.4-7.5 4.4-1.8 9.25-2.7 14.55-2.7 5.3 0 10.175.9 14.625 2.7 4.45 1.8 8.275 4.3 11.475 7.5 3.2 3.2 5.675 7.025 7.425 11.475 1.75 4.45 2.625 9.375 2.625 14.775zm-3.3 0c0-4.6-.75-8.95-2.25-13.05-1.5-4.1-3.675-7.675-6.525-10.725-2.85-3.05-6.3-5.45-10.35-7.2s-8.625-2.625-13.725-2.625-9.65.875-13.65 2.625-7.425 4.15-10.275 7.2c-2.85 3.05-5.025 6.625-6.525 10.725s-2.25 8.45-2.25 13.05c0 4.7.75 9.1 2.25 13.2s3.675 7.675 6.525 10.725c2.85 3.05 6.275 5.475 10.275 7.275 4 1.8 8.55 2.7 13.65 2.7s9.675-.9 13.725-2.7c4.05-1.8 7.5-4.225 10.35-7.275 2.85-3.05 5.025-6.625 6.525-10.725s2.25-8.5 2.25-13.2zm131.8-16.2c2-7.2 5.2-12.375 9.6-15.525 4.4-3.15 9.15-4.725 14.25-4.725h1.35c.4 0 .85.05 1.35.15v2.85c-.4-.1-.775-.15-1.125-.15h-.825c-4.4 0-8.15.975-11.25 2.925-3.1 1.95-5.65 4.5-7.65 7.65-2 3.15-3.475 6.65-4.425 10.5-.95 3.85-1.425 7.675-1.425 11.475v35.7h-3.3v-51.6c0-1.1-.025-2.45-.075-4.05-.05-1.6-.1-3.225-.15-4.875-.05-1.65-.125-3.225-.225-4.725-.1-1.5-.2-2.75-.3-3.75h3.3c.1 1 .175 2.25.225 3.75.05 1.5.1 3.125.15 4.875.05 1.75.1 3.45.15 5.1.05 1.65.075 3.125.075 4.425h.3zm154.75 73.65c-1.6 4.3-3.725 7.625-6.375 9.975-2.65 2.35-6.075 3.525-10.275 3.525-.9 0-1.95-.1-3.15-.3-1.2-.2-2.2-.45-3-.75l.9-2.85c.6.2 1.425.4 2.475.6 1.05.2 2.075.3 3.075.3 2.1 0 3.925-.4 5.475-1.2 1.55-.8 2.875-1.825 3.975-3.075 1.1-1.25 2.025-2.675 2.775-4.275.75-1.6 1.425-3.2 2.025-4.8l6.6-18-27.3-70.95h3.6l25.35 67.2 24.45-67.2h3.6l-34.2 91.8z"/></svg>