<svg id="arrow-down" xmlns="http://www.w3.org/2000/svg" width="44" height="44" viewBox="0 0 44 44">
  <path fill-rule="evenodd" d="M22,44 C34.1502645,44 44,34.1502645 44,22 C44,9.8497355 34.1502645,0 22,0 C9.8497355,0 0,9.8497355 0,22 C0,34.1502645 9.8497355,44 22,44 Z M13.4336559,17.9519202 C12.3025326,17.1601339 10.7437065,17.4352209 9.9519202,18.5663441 C9.16013393,19.6974674 9.4352209,21.2562935 10.5663441,22.0480798 L20.5663441,29.0480798 C21.4271445,29.6506401 22.5728555,29.6506401 23.4336559,29.0480798 L33.4336559,22.0480798 C34.5647791,21.2562935 34.8398661,19.6974674 34.0480798,18.5663441 C33.2562935,17.4352209 31.6974674,17.1601339 30.5663441,17.9519202 L22,23.9483611 L13.4336559,17.9519202 Z"/>
</svg>