<svg xmlns="http://www.w3.org/2000/svg" width="26" height="26" viewBox="0 0 26 26">
  <path fill="#B2B2B2" fill-rule="evenodd" d="M754.57,49 L731.43,49 C730.65,49 730,49.65 730,50.43 L730,73.57 C730,74.35 730.65,75 731.43,75 L743.91,75 L743.91,64.99 L740.53,64.99 L740.53,61.09 L743.91,61.09 L743.91,58.1 C743.91,54.72 745.99,52.9 748.98,52.9 C750.41,52.9 751.71,53.03 751.97,53.03 L751.97,56.54 L749.89,56.54 C748.2,56.54 747.94,57.32 747.94,58.49 L747.94,60.96 L751.84,60.96 L751.32,64.86 L747.94,64.86 L747.94,74.87 L754.57,74.87 C755.35,74.87 756,74.22 756,73.44 L756,50.3 C756,49.65 755.35,49 754.57,49 L754.57,49 L754.57,49 Z" transform="translate(-730 -49)"/>
</svg>
