<svg xmlns="http://www.w3.org/2000/svg" width="30" height="30" viewBox="0 0 30 30">
  <path fill="#B2B2B2" fill-rule="evenodd" d="M631,76.5 C639.008129,76.5 645.5,70.0081289 645.5,62 C645.5,53.9918711 639.008129,47.5 631,47.5 C622.991871,47.5 616.5,53.9918711 616.5,62 C616.5,70.0081289 622.991871,76.5 631,76.5 Z M631,74.2272727 C624.247064,74.2272727 618.772727,68.7529363 618.772727,62 C618.772727,55.2470637 624.247064,49.7727273 631,49.7727273 C637.752936,49.7727273 643.227273,55.2470637 643.227273,62 C643.227273,68.7529363 637.752936,74.2272727 631,74.2272727 Z M629.227273,68.5 L627.954545,68.5 L627.954545,70.1363636 L634.045455,70.1363636 L634.045455,68.5 L632.772727,68.5 L632.772727,58.3181818 L627.954545,58.3181818 L627.954545,59.9545455 L629.227273,59.9545455 L629.227273,68.5 Z M630.681818,57.4090909 C631.836595,57.4090909 632.772727,56.472959 632.772727,55.3181818 C632.772727,54.1634046 631.836595,53.2272727 630.681818,53.2272727 C629.527041,53.2272727 628.590909,54.1634046 628.590909,55.3181818 C628.590909,56.472959 629.527041,57.4090909 630.681818,57.4090909 Z" transform="translate(-616 -47)"/>
</svg>
