<svg viewBox="0 0 486 59" xmlns="http://www.w3.org/2000/svg"><path d="M49.46 41.24c0 .747-1.493 4.853-4.48 12.32l-.96 2.4c-.213.533-.467.84-.76.92-.293.08-1.267.12-2.92.12h-4.88c-2.24 0-4.467-.027-6.68-.08-2.213-.053-3.213-.08-3-.08h-2.56c-1.493.053-2.853.08-4.08.08h-6.4c-1.067 0-2.133-.027-3.2-.08h-1.52c-.693 0-1.733.053-3.12.16-1.387.107-2.427.16-3.12.16-.747 0-1.12-.213-1.12-.64 0-.48.667-.72 2-.72.107.107 1.467.053 4.08-.16.96-.053 1.587-.2 1.88-.44.293-.24.6-.813.92-1.72.16-.32.613-1.387 1.36-3.2l17.44-42.4c.907-2.187 1.36-3.573 1.36-4.16 0-.8-1.333-1.2-4-1.2.16 0-.613.053-2.32.16-.48.053-.72-.16-.72-.64 0-.533 1.28-.8 3.84-.8-.053 0 1.093.027 3.44.08 1.28.053 2.533.133 3.76.24 2.613.107 5.387.08 8.32-.08l1.52-.08c.267-.053.587-.08.96-.08.533 0 .8.267.8.8 0 .48-.32.72-.96.72-.053 0-.613-.053-1.68-.16h-.96c-1.867 0-3.027.147-3.48.44-.453.293-1.453 2.387-3 6.28l-16.64 41.84c-.427 1.013-.747 1.84-.96 2.48-.107.213-.187.4-.24.56 0 .853 1.093 1.28 3.28 1.28 7.467 0 12.587-.373 15.36-1.12 4.053-1.067 7.387-4.053 10-8.96.96-1.813 1.627-3.227 2-4.24.16-.48.4-.72.72-.72.48 0 .72.24.72.72zm101.04-39.12c0 .48-.32.72-.96.72-.32 0-.587-.027-.8-.08h-1.28c-2.293 0-3.707.427-4.24 1.28-.8 1.227-1.973 3.813-3.52 7.76l-16.08 41.2c-.107.32-.24.693-.4 1.12 0 .96 1.067 1.573 3.2 1.84.693 0 1.52.027 2.48.08.693.053 1.04.24 1.04.56 0 .373-.373.56-1.12.56-3.84-.053-9.36-.08-16.56-.08-2.507 0-3.96-.027-4.36-.08-.4-.053-.6-.213-.6-.48 0-.373.72-.56 2.16-.56 1.973-.053 3.28-.187 3.92-.4 1.013-.373 1.76-.96 2.24-1.76.48-1.173 1.04-2.56 1.68-4.16l15.6-39.2c1.547-3.893 2.32-6.027 2.32-6.4 0-.907-.827-1.36-2.48-1.36h-3.2c-.587 0-.88-.213-.88-.64 0-.373.293-.56.88-.56h.72c.32.053 1.6.08 3.84.08l11.92-.08c.32.053.587.08.8.08l2.96-.08c.48 0 .72.213.72.64zm122 0c0 .747-.32 1.12-.96 1.12-.213-.053-.56-.133-1.04-.24-.213-.053-.48-.08-.8-.08-.32 0-.587.027-.8.08h-1.68c-.213-.053-.507-.08-.88-.08-.64 0-1.147.373-1.52 1.12-1.013 2.08-2 4.373-2.96 6.88l-14.96 38.96c-.107.373-.32.96-.64 1.76 0 .107-.067.36-.2.76s-.36 1-.68 1.8c-.213.213-.32.4-.32.56 0 .64.693.96 2.08.96h1.12l1.92.08 1.6-.08c.16.053.24.187.24.4 0 .693-.4 1.013-1.2.96l-2.24-.16-17.12.16c-.533 0-.8-.16-.8-.48 0-.587.733-.88 2.2-.88s2.653-.133 3.56-.4c.427-.16.88-.773 1.36-1.84l4-10.08 15.68-39.6c-.053.053-2.693 3.947-7.92 11.68l-26.48 38.96c-1.013 1.387-1.68 2.08-2 2.08-.427 0-.64-.427-.64-1.28l.08-.88.08-2.48 2.16-40.64c.107-2.027.16-3.333.16-3.92 0-1.227-.107-1.84-.32-1.84-.107.107-.24.373-.4.8-.32 1.067-.773 2.373-1.36 3.92l-16 43.6c-.107.32-.16.56-.16.72 0 .64.267 1.04.8 1.2.533.16 1.84.187 3.92.08l1.44-.08c.373 0 .56.16.56.48 0 .587-.347.88-1.04.88-.587 0-1.067-.027-1.44-.08l-5.12-.08c-3.787-.053-6.587-.027-8.4.08-.32.053-.693.08-1.12.08-.533 0-.8-.187-.8-.56 0-.587.4-.88 1.2-.88.267 0 .56.027.88.08.32.053 1.173.08 2.56.08 1.813 0 2.947-.253 3.4-.76.453-.507 1.267-2.307 2.44-5.4l16.16-43.2c.16-.533.373-1.147.64-1.84.16-.213.293-.427.4-.64 0-.213-.307-.44-.92-.68-.613-.24-1.213-.36-1.8-.36-.853.053-2.373.107-4.56.16h-.32c-.373 0-.56-.293-.56-.88 0-.533.293-.8.88-.8.373 0 .72.027 1.04.08.693.107 3.387.16 8.08.16 4.107 0 6.293-.027 6.56-.08h.4c.32 0 .48.24.48.72 0 .8-.053 2.267-.16 4.4l-1.84 36.32c.213-.373.827-1.253 1.84-2.64l1.92-2.64 24.16-36.08h6l9.2-.08c.64 0 .96.187.96.56zm98.16 10c0 5.6-3.093 10.053-9.28 13.36-3.147 1.653-6.107 2.72-8.88 3.2 3.253.8 5.653 1.867 7.2 3.2 2.08 1.813 3.12 4.24 3.12 7.28 0 2.987-.867 5.84-2.6 8.56-1.733 2.72-4.067 4.88-7 6.48-3.573 1.973-10.187 2.96-19.84 2.96h-1.92c-1.12-.053-2.187-.08-3.2-.08h-7.28c-3.147 0-4.96.027-5.44.08h-.48c-.587 0-.88-.213-.88-.64 0-.587.347-.853 1.04-.8l3.52.32c2.027-.16 3.24-.293 3.64-.4.4-.107.733-.453 1-1.04.107-.32.307-.8.6-1.44.293-.64 1.133-2.693 2.52-6.16l14.08-35.04c1.707-4.267 2.56-6.773 2.56-7.52 0-.907-1.973-1.36-5.92-1.36-.8 0-1.2-.213-1.2-.64 0-.373.427-.587 1.28-.64l4-.16h14.48c5.013 0 8.613.773 10.8 2.32 2.72 1.92 4.08 4.64 4.08 8.16zm-7.68-1.84c0-4.747-2.8-7.12-8.4-7.12-1.013 0-2 .027-2.96.08-.48.96-1.04 2.267-1.68 3.92l-7.76 20.24c.8.107 1.68.16 2.64.16 6.56 0 11.333-1.867 14.32-5.6 2.56-3.2 3.84-7.093 3.84-11.68zm-8.32 27.92c0-6.027-3.093-9.04-9.28-9.04-1.387 0-2.773.08-4.16.24l-8.8 22.48c-.64 1.653-.96 2.613-.96 2.88 0 .747.427 1.12 1.28 1.12 5.653 0 10.027-.88 13.12-2.64 5.867-3.36 8.8-8.373 8.8-15.04zm131.2-18.72c0 5.547-1.387 11-4.16 16.36-2.773 5.36-6.56 9.96-11.36 13.8-7.093 5.6-14.187 8.4-21.28 8.4-5.333 0-9.493-1.48-12.48-4.44-2.987-2.96-4.48-7.107-4.48-12.44 0-5.387 1.387-10.92 4.16-16.6 2.773-5.68 6.507-10.573 11.2-14.68 7.04-6.187 14.24-9.28 21.6-9.28 5.387 0 9.573 1.947 12.56 5.84 2.827 3.68 4.24 8.027 4.24 13.04zm-7.6-5.12c0-3.04-.587-5.733-1.76-8.08-1.493-3.04-4.187-4.56-8.08-4.56-6.667 0-12.987 4.827-18.96 14.48-2.933 4.747-5.267 9.787-7 15.12-1.733 5.333-2.6 10.16-2.6 14.48 0 7.413 3.36 11.12 10.08 11.12 4 0 7.92-1.68 11.76-5.04 5.12-4.427 9.227-10.693 12.32-18.8 2.827-7.36 4.24-13.6 4.24-18.72z"/></svg>