<svg xmlns="http://www.w3.org/2000/svg" viewBox="0 0 44 44" id="pause-button">
  <path fill-rule="evenodd" d="M22,44 C34.1502645,44 44,34.1502645 44,22 C44,9.8497355 34.1502645,0 22,0 C9.8497355,0 0,9.8497355 0,22 C0,34.1502645 9.8497355,44 22,44 Z M15,13.9933977 C15,13.4447593 15.4437166,13 15.9998075,13 L19.0001925,13 C19.5523709,13 20,13.4449463 20,13.9933977 L20,30.0066023 C20,30.5552407 19.5562834,31 19.0001925,31 L15.9998075,31 C15.4476291,31 15,30.5550537 15,30.0066023 L15,13.9933977 Z M24,13.9933977 C24,13.4447593 24.4437166,13 24.9998075,13 L28.0001925,13 C28.5523709,13 29,13.4449463 29,13.9933977 L29,30.0066023 C29,30.5552407 28.5562834,31 28.0001925,31 L24.9998075,31 C24.4476291,31 24,30.5550537 24,30.0066023 L24,13.9933977 Z"/>
</svg>
