<svg xmlns="http://www.w3.org/2000/svg" width="29" height="24" viewBox="0 0 29 24">
  <path fill="#B2B2B2" fill-rule="evenodd" d="M682.040486,74 C678.635628,74 675.582996,73.04 673,71.24 L674.408907,71.36 C677.226721,71.36 679.692308,70.4 681.805668,68.72 C679.222672,68.72 676.991903,66.92 676.287449,64.52 C676.639676,64.64 676.991903,64.64 677.461538,64.64 C678.048583,64.64 678.518219,64.52 678.987854,64.4 C676.287449,63.8 674.174089,61.4 674.174089,58.52 L674.174089,58.4 C674.995951,58.88 675.935223,59.12 676.874494,59.12 C675.230769,58.04 674.291498,56.12 674.291498,54.08 C674.291498,53 674.526316,51.92 675.11336,51.08 C678.048583,54.8 682.392713,57.2 687.323887,57.44 C687.206478,56.96 687.206478,56.48 687.206478,56 C687.206478,52.64 689.906883,50 693.076923,50 C694.838057,50 696.364372,50.72 697.421053,51.92 C698.82996,51.68 700.004049,51.2 701.178138,50.48 C700.708502,51.92 699.769231,53.12 698.595142,53.84 C699.769231,53.72 700.94332,53.36 702,52.88 C701.178138,54.08 700.238866,55.16 699.064777,56 L699.064777,56.84 C698.947368,64.76 692.959514,74 682.040486,74" transform="translate(-673 -50)"/>
</svg>
