<svg viewBox="0 0 28 11" xmlns="http://www.w3.org/2000/svg"><path d="M5.55 7.214v-.266l-.014-.378-2.716-4.298c-.177-.28-.289-.443-.336-.49-.14-.14-.313-.21-.518-.21l-.252.014h-.126l-.14.014c-.429 0-.644-.163-.644-.49 0-.336.187-.504.56-.504.149 0 .336.019.56.056.448.075.868.112 1.26.112.289 0 .723-.042 1.302-.126.196-.028.364-.042.504-.042.383 0 .574.163.574.49 0 .317-.229.476-.686.476l-.14-.014h-.35l-.28-.014c-.112-.009-.168.028-.168.112l.014.077.07.119 2.142 3.64 2.17-3.64c.047-.075.07-.149.07-.224 0-.084-.061-.126-.182-.126h-.028l-.252.014-.364.042-.364.028c-.383 0-.574-.163-.574-.49 0-.327.187-.49.56-.49.14 0 .308.014.504.042.523.075.975.112 1.358.112.401 0 .845-.037 1.33-.112.187-.028.345-.042.476-.042.355 0 .532.163.532.49 0 .299-.173.448-.518.448-.14 0-.247-.009-.322-.028l-.308-.028c-.243 0-.439.112-.588.336l-.21.322-2.758 4.326v.588c0 .952.04 1.545.119 1.778.079.233.278.35.595.35l.343-.035.343-.035c.289 0 .434.149.434.448 0 .336-.21.504-.63.504h-.084l-.098-.014-.77-.098c-.289-.037-.574-.056-.854-.056-.299 0-.583.019-.854.056l-.714.098-.084.014h-.098c-.42 0-.63-.163-.63-.49 0-.308.149-.462.448-.462l.329.035.329.035c.392 0 .63-.247.714-.742.009-.084.014-.495.014-1.232zm9.408 3.024c-.98 0-1.764-.338-2.352-1.015-.588-.677-.882-1.584-.882-2.723 0-1.139.296-2.046.889-2.723s1.388-1.015 2.387-1.015c1.017 0 1.82.331 2.408.994.588.663.882 1.563.882 2.702s-.303 2.053-.91 2.744c-.607.691-1.414 1.036-2.422 1.036zm.07-6.552c-.653 0-1.167.229-1.54.686-.373.457-.579 1.106-.616 1.946v.182c0 .877.184 1.566.553 2.065.369.499.884.749 1.547.749.681 0 1.216-.25 1.603-.749s.581-1.192.581-2.079c0-1.867-.709-2.8-2.128-2.8zm10.066 5.964v-.434c-.495.681-1.227 1.022-2.198 1.022-1.101 0-1.867-.341-2.296-1.022-.187-.299-.289-.649-.308-1.05-.009-.196-.014-.607-.014-1.232v-1.162c0-1.279-.135-1.918-.406-1.918l-.266.035-.28.035c-.327 0-.49-.154-.49-.462 0-.299.201-.448.602-.448l.413.028.413.028.434-.042.238-.028c.289 0 .434.177.434.532v.294l-.014.91-.042 1.036v.91c0 .812.065 1.395.196 1.75.215.588.728.882 1.54.882.401 0 .756-.091 1.064-.273.308-.182.523-.422.644-.721.149-.364.224-1.055.224-2.072v-1.6800000000000002c-.047-.448-.168-.672-.364-.672l-.252.028h-.168c-.327 0-.49-.145-.49-.434 0-.327.182-.49.546-.49l.385.028.385.028.336-.021.336-.021c.28 0 .42.149.42.448l-.028.308c-.047.355-.07.877-.07 1.568v2.156c0 .569.005.887.014.952.047.495.177.742.392.742l.28-.035.28-.035c.317 0 .476.154.476.462 0 .317-.196.476-.588.476l-.364-.028-.434-.042-.294.028-.294.042c-.261 0-.392-.135-.392-.406z"/></svg>